<mxfile host="app.diagrams.net" modified="2023-04-24T11:31:47.458Z" agent="Mozilla/5.0 (Windows NT 10.0; Win64; x64) AppleWebKit/537.36 (KHTML, like Gecko) Chrome/112.0.0.0 Safari/537.36" etag="OKmcievK7CwaFUHJaS24" version="21.2.1" type="github">
  <diagram name="Trang-1" id="TPplcCrBMmau0RvHbRAA">
    <mxGraphModel dx="1150" dy="547" grid="1" gridSize="10" guides="1" tooltips="1" connect="1" arrows="1" fold="1" page="1" pageScale="1" pageWidth="850" pageHeight="1100" math="0" shadow="0">
      <root>
        <mxCell id="0" />
        <mxCell id="1" parent="0" />
        <mxCell id="AesQ79Y84NSE2rtG8ii--1" value="SinhVien" style="swimlane;fontStyle=1;align=center;verticalAlign=top;childLayout=stackLayout;horizontal=1;startSize=26;horizontalStack=0;resizeParent=1;resizeParentMax=0;resizeLast=0;collapsible=1;marginBottom=0;whiteSpace=wrap;html=1;sketch=1;hachureGap=4;jiggle=2;curveFitting=1;fontFamily=Architects Daughter;fontSource=https%3A%2F%2Ffonts.googleapis.com%2Fcss%3Ffamily%3DArchitects%2BDaughter;fontSize=20;" parent="1" vertex="1">
          <mxGeometry x="10" y="10" width="260" height="572" as="geometry" />
        </mxCell>
        <mxCell id="AesQ79Y84NSE2rtG8ii--2" value="+ string: tenSV;&amp;nbsp;&lt;br&gt;+ int: maSV;&lt;br&gt;+ float : diemToan;&lt;br&gt;+float: diemLy;&lt;br&gt;+float: diemHoa;&lt;br&gt;+ float: diemTB;&lt;br&gt;+String: xepLoai;" style="text;strokeColor=none;fillColor=none;align=left;verticalAlign=top;spacingLeft=4;spacingRight=4;overflow=hidden;rotatable=0;points=[[0,0.5],[1,0.5]];portConstraint=eastwest;whiteSpace=wrap;html=1;fontSize=20;fontFamily=Architects Daughter;" parent="AesQ79Y84NSE2rtG8ii--1" vertex="1">
          <mxGeometry y="26" width="260" height="194" as="geometry" />
        </mxCell>
        <mxCell id="AesQ79Y84NSE2rtG8ii--3" value="" style="line;strokeWidth=1;fillColor=none;align=left;verticalAlign=middle;spacingTop=-1;spacingLeft=3;spacingRight=3;rotatable=0;labelPosition=right;points=[];portConstraint=eastwest;strokeColor=inherit;sketch=1;hachureGap=4;jiggle=2;curveFitting=1;fontFamily=Architects Daughter;fontSource=https%3A%2F%2Ffonts.googleapis.com%2Fcss%3Ffamily%3DArchitects%2BDaughter;fontSize=20;" parent="AesQ79Y84NSE2rtG8ii--1" vertex="1">
          <mxGeometry y="220" width="260" height="100" as="geometry" />
        </mxCell>
        <mxCell id="AesQ79Y84NSE2rtG8ii--4" value="+SInhVien():&lt;br&gt;+SInhVien(ten,ma,toan,ly,hoa);&lt;br&gt;+tinhDiemTB() : float;&lt;br&gt;+xepLoai();&lt;br&gt;+nhap();&lt;br&gt;+xuat();&lt;br&gt;&amp;nbsp;" style="text;strokeColor=none;fillColor=none;align=left;verticalAlign=top;spacingLeft=4;spacingRight=4;overflow=hidden;rotatable=0;points=[[0,0.5],[1,0.5]];portConstraint=eastwest;whiteSpace=wrap;html=1;fontSize=20;fontFamily=Architects Daughter;" parent="AesQ79Y84NSE2rtG8ii--1" vertex="1">
          <mxGeometry y="320" width="260" height="252" as="geometry" />
        </mxCell>
        <mxCell id="_xOzjPGfDOkgs5k5t9EU-1" value="DanhSachSinhVien" style="swimlane;fontStyle=1;align=center;verticalAlign=top;childLayout=stackLayout;horizontal=1;startSize=26;horizontalStack=0;resizeParent=1;resizeParentMax=0;resizeLast=0;collapsible=1;marginBottom=0;whiteSpace=wrap;html=1;sketch=1;hachureGap=4;jiggle=2;curveFitting=1;fontFamily=Architects Daughter;fontSource=https%3A%2F%2Ffonts.googleapis.com%2Fcss%3Ffamily%3DArchitects%2BDaughter;fontSize=20;" parent="1" vertex="1">
          <mxGeometry x="290" y="10" width="230" height="340" as="geometry" />
        </mxCell>
        <mxCell id="_xOzjPGfDOkgs5k5t9EU-2" value="+ArrayList&amp;lt;SinhVien&amp;gt;&lt;br&gt;&amp;nbsp;listSV;" style="text;strokeColor=none;fillColor=none;align=left;verticalAlign=top;spacingLeft=4;spacingRight=4;overflow=hidden;rotatable=0;points=[[0,0.5],[1,0.5]];portConstraint=eastwest;whiteSpace=wrap;html=1;fontSize=20;fontFamily=Architects Daughter;" parent="_xOzjPGfDOkgs5k5t9EU-1" vertex="1">
          <mxGeometry y="26" width="230" height="134" as="geometry" />
        </mxCell>
        <mxCell id="_xOzjPGfDOkgs5k5t9EU-3" value="" style="line;strokeWidth=1;fillColor=none;align=left;verticalAlign=middle;spacingTop=-1;spacingLeft=3;spacingRight=3;rotatable=0;labelPosition=right;points=[];portConstraint=eastwest;strokeColor=inherit;sketch=1;hachureGap=4;jiggle=2;curveFitting=1;fontFamily=Architects Daughter;fontSource=https%3A%2F%2Ffonts.googleapis.com%2Fcss%3Ffamily%3DArchitects%2BDaughter;fontSize=20;" parent="_xOzjPGfDOkgs5k5t9EU-1" vertex="1">
          <mxGeometry y="160" width="230" height="8" as="geometry" />
        </mxCell>
        <mxCell id="_xOzjPGfDOkgs5k5t9EU-4" value="+DanhSachSinhVien();&lt;br&gt;+nhap();&lt;br&gt;+xuat();&lt;br&gt;+tinhDTB();&lt;br&gt;+xepLoai;" style="text;strokeColor=none;fillColor=none;align=left;verticalAlign=top;spacingLeft=4;spacingRight=4;overflow=hidden;rotatable=0;points=[[0,0.5],[1,0.5]];portConstraint=eastwest;whiteSpace=wrap;html=1;fontSize=20;fontFamily=Architects Daughter;" parent="_xOzjPGfDOkgs5k5t9EU-1" vertex="1">
          <mxGeometry y="168" width="230" height="172" as="geometry" />
        </mxCell>
        <mxCell id="wSZngvSCebQyBBhBnuzG-1" value="TruongHoc&lt;br&gt;" style="swimlane;fontStyle=1;align=center;verticalAlign=top;childLayout=stackLayout;horizontal=1;startSize=26;horizontalStack=0;resizeParent=1;resizeParentMax=0;resizeLast=0;collapsible=1;marginBottom=0;whiteSpace=wrap;html=1;sketch=1;hachureGap=4;jiggle=2;curveFitting=1;fontFamily=Architects Daughter;fontSource=https%3A%2F%2Ffonts.googleapis.com%2Fcss%3Ffamily%3DArchitects%2BDaughter;fontSize=20;" parent="1" vertex="1">
          <mxGeometry x="580" y="10" width="220" height="264" as="geometry" />
        </mxCell>
        <mxCell id="wSZngvSCebQyBBhBnuzG-2" value="+DanhSachSinhVien dssvToanTruong : DanhSachSinhVien();" style="text;strokeColor=none;fillColor=none;align=left;verticalAlign=top;spacingLeft=4;spacingRight=4;overflow=hidden;rotatable=0;points=[[0,0.5],[1,0.5]];portConstraint=eastwest;whiteSpace=wrap;html=1;fontSize=20;fontFamily=Architects Daughter;" parent="wSZngvSCebQyBBhBnuzG-1" vertex="1">
          <mxGeometry y="26" width="220" height="84" as="geometry" />
        </mxCell>
        <mxCell id="wSZngvSCebQyBBhBnuzG-3" value="" style="line;strokeWidth=1;fillColor=none;align=left;verticalAlign=middle;spacingTop=-1;spacingLeft=3;spacingRight=3;rotatable=0;labelPosition=right;points=[];portConstraint=eastwest;strokeColor=inherit;sketch=1;hachureGap=4;jiggle=2;curveFitting=1;fontFamily=Architects Daughter;fontSource=https%3A%2F%2Ffonts.googleapis.com%2Fcss%3Ffamily%3DArchitects%2BDaughter;fontSize=20;" parent="wSZngvSCebQyBBhBnuzG-1" vertex="1">
          <mxGeometry y="110" width="220" height="8" as="geometry" />
        </mxCell>
        <mxCell id="wSZngvSCebQyBBhBnuzG-4" value="+TruongHoc();&lt;br&gt;+nhap();&lt;br&gt;+xuat();&lt;br&gt;+tinhDTB();&lt;br&gt;+xepLoai();" style="text;strokeColor=none;fillColor=none;align=left;verticalAlign=top;spacingLeft=4;spacingRight=4;overflow=hidden;rotatable=0;points=[[0,0.5],[1,0.5]];portConstraint=eastwest;whiteSpace=wrap;html=1;fontSize=20;fontFamily=Architects Daughter;" parent="wSZngvSCebQyBBhBnuzG-1" vertex="1">
          <mxGeometry y="118" width="220" height="146" as="geometry" />
        </mxCell>
      </root>
    </mxGraphModel>
  </diagram>
</mxfile>
